
<svg width="53" height="64" viewBox="0 0 53 64" fill="none" xmlns="http://www.w3.org/2000/svg">
<path d="M52.0644 12.1254C51.6754 10.6664 51.416 9.85586 51.416 9.85586C50.9945 8.34824 49.9246 8.34824 48.3359 8.08887L39.7279 7.00273C38.658 6.82441 38.658 6.82441 38.2365 5.90039C36.8261 2.72305 36.3884 0.875 34.8484 0.875H18.1511C16.6111 0.875 16.1896 2.72305 14.7793 5.9166C14.3578 6.82441 14.3578 6.82441 13.2879 7.01895L4.66364 8.10508C3.09118 8.36445 1.95641 8.51035 1.53492 10.018C1.53492 10.018 1.34039 10.6826 0.935121 12.1254C0.416371 14.0545 0.205629 13.8438 1.98883 13.8438H51.0107C52.7939 13.86 52.5994 14.0545 52.0644 12.1254Z" fill="#FFE8D1"/>
<path d="M46.5039 19.0312H6.49536C3.80434 19.0312 3.67465 19.3879 3.83676 21.4143L6.86821 60.742C7.12758 62.7359 7.32211 63.1412 9.70512 63.1412H43.2942C45.6772 63.1412 45.8717 62.7359 46.1311 60.742L49.1625 21.4143C49.3247 19.3717 49.195 19.0312 46.5039 19.0312Z" fill="#FFE8D1"/>
</svg>
